<svg xmlns="http://www.w3.org/2000/svg" viewBox="0 0 30 30"><defs><style>.cls-1{fill:#ffce31;}.cls-2{fill:#ed4c5c;}.cls-3{fill:#93a2aa;}.cls-4{fill:#c7d3d8;}.cls-5{fill:#fed0ac;}.cls-6{fill:#333;}.cls-7{fill:#ffdf85;}.cls-8{fill:#ff8736;}</style></defs><g id="レイヤー_2" data-name="レイヤー 2"><g id="レイヤー_1-2" data-name="レイヤー 1"><rect class="cls-1" x="4.12" y="10.35" width="21.15" height="9.91" transform="translate(-6.52 14.87) rotate(-44.99)"/><path class="cls-2" d="M28.73,2.16l-.89-.89a4.33,4.33,0,0,0-6.12,0l-3,3.06,7,7,3.05-3.05A4.33,4.33,0,0,0,28.73,2.16Z"/><rect class="cls-3" x="19.86" y="3.83" width="2.7" height="9.91" transform="translate(0 17.57) rotate(-45)"/><rect class="cls-4" x="19.86" y="4.89" width="2.71" height="7.79" transform="translate(0 17.57) rotate(-45)"/><polygon class="cls-5" points="3.71 19.28 0.67 27.23 2.76 29.33 10.72 26.29 3.71 19.28"/><path class="cls-6" d="M.14,28.62c-.42,1.1.14,1.66,1.24,1.24l3.86-1.48L1.62,24.76Z"/><rect class="cls-7" x="2.18" y="12.28" width="18.45" height="3.3" transform="translate(-6.51 12.14) rotate(-45)"/><rect class="cls-8" x="6.85" y="16.95" width="18.45" height="3.3" transform="translate(-8.44 16.81) rotate(-45)"/></g></g></svg>