<svg xmlns="http://www.w3.org/2000/svg" viewBox="0 0 18.75 28.13"><defs><style>.cls-1{fill:#616466;}.cls-2{fill:#ffce31;}.cls-3{fill:#c79127;}.cls-4{fill:#94989b;}</style></defs><g id="レイヤー_2" data-name="レイヤー 2"><g id="レイヤー_1-2" data-name="レイヤー 1"><path class="cls-1" d="M7.5,26.25a1.88,1.88,0,0,0,3.75,0Z"/><path class="cls-2" d="M6.06,21.56h6.63a18.56,18.56,0,0,1,3-6c1.52-2.4,3.1-4.87,3.1-7.28C18.75,3.7,14.54,0,9.38,0S0,3.7,0,8.24c0,2.41,1.58,4.88,3.1,7.28A18.56,18.56,0,0,1,6.06,21.56Z"/><path class="cls-3" d="M5.92,13.52c0-.1.07-.16.12-.17h.08a.24.24,0,0,1,.09.07,1.91,1.91,0,0,1,.36.68l.09.28a.93.93,0,0,1-.51-.23A.76.76,0,0,1,5.92,13.52Zm3.17-1.64a.32.32,0,0,1,.57,0,.58.58,0,0,1,0,.54,2.59,2.59,0,0,1-.25.39,2,2,0,0,1-.26-.39A.58.58,0,0,1,9.09,11.88Zm3.09,2.21a1.91,1.91,0,0,1,.36-.68.24.24,0,0,1,.09-.07h.08s.1.07.12.17a.76.76,0,0,1-.23.62.93.93,0,0,1-.51.23Zm-5.41.72c.07.28.13.56.2.83.13.51.25,1,.36,1.49.43,1.76.81,3.27,1.11,4.43h.28c-.24-1.18-.58-2.72-1-4.51-.11-.48-.23-1-.34-1.49-.06-.25-.12-.5-.17-.77a4.2,4.2,0,0,0,2.15-1.35,4.15,4.15,0,0,0,2.14,1.35c0,.27-.11.52-.17.77-.11.51-.23,1-.34,1.49-.4,1.79-.74,3.33-1,4.51h.28c.3-1.16.68-2.67,1.11-4.43.11-.48.23-1,.36-1.49.07-.27.13-.55.2-.83a1.51,1.51,0,0,0,1-.38,1.07,1.07,0,0,0,.34-1,.6.6,0,0,0-.42-.49.63.63,0,0,0-.39,0,1,1,0,0,0-.28.18,2.32,2.32,0,0,0-.44.83,3.31,3.31,0,0,0-.12.42,2.35,2.35,0,0,1-1.25-.55,2.71,2.71,0,0,1-.75-.7,2.35,2.35,0,0,0,.4-.56,1.09,1.09,0,0,0,.12-.4.79.79,0,0,0-.09-.47.85.85,0,0,0-.41-.35.81.81,0,0,0-.27,0,.87.87,0,0,0-.28,0,.85.85,0,0,0-.41.35.79.79,0,0,0-.09.47,1.33,1.33,0,0,0,.12.4,2.67,2.67,0,0,0,.4.56,2.62,2.62,0,0,1-.74.7,2.39,2.39,0,0,1-1.26.55A3.31,3.31,0,0,0,7,14a2.32,2.32,0,0,0-.44-.83A.9.9,0,0,0,6.28,13a.64.64,0,0,0-.39,0,.62.62,0,0,0-.42.49,1.08,1.08,0,0,0,.35,1A1.46,1.46,0,0,0,6.77,14.81Z"/><rect class="cls-4" x="6.02" y="22.48" width="6.72" height="0.86"/><rect class="cls-4" x="6.49" y="24.21" width="5.78" height="0.86"/><rect class="cls-1" x="6.49" y="23.34" width="5.78" height="0.86"/><polygon class="cls-4" points="12.74 22.48 6.49 24.21 6.49 25.07 12.74 23.34 12.74 22.48"/><rect class="cls-4" x="6.96" y="25.93" width="4.85" height="0.86"/><rect class="cls-1" x="6.96" y="25.07" width="4.85" height="0.86"/><polygon class="cls-4" points="12.28 24.21 6.96 25.93 6.96 26.79 12.28 25.07 12.28 24.21"/></g></g></svg>