<svg xmlns="http://www.w3.org/2000/svg" viewBox="0 0 131.46 131.46"><defs><style>.cls-1{fill:#91a0a8;}.cls-2{fill:#8e3333;}.cls-3{fill:#aebbc4;}.cls-4{fill:#df4b59;}.cls-5{fill:#d8e1e6;}.cls-6{fill:#7c8a90;}</style></defs><g id="レイヤー_2" data-name="レイヤー 2"><g id="レイヤー_1-2" data-name="レイヤー 1"><path class="cls-1" d="M103.82,70.72C97.18,53.16,79.4,38.85,85.64,17.54L13.52,23.91c-11.65,39.82,38,61.75,26.36,101.57C61.56,114.27,84.15,104.2,105.83,93,108.11,85.17,106.26,77.16,103.82,70.72Z"/><path class="cls-2" d="M13.54,77.71,32.8,66.49c4.34,3.9,8.12,8.15,10.5,13.31l-20.2,10a41.17,41.17,0,0,0-.05-8.68A89,89,0,0,0,13.54,77.71Z"/><path class="cls-3" d="M121.19,68.52C113.54,48.34,93.11,31.89,100.28,7.4L17.4,14.72C4,60.48,61.07,85.69,47.69,131.46c24.92-12.89,50.88-24.46,75.8-37.35C126.11,85.13,124,75.91,121.19,68.52Z"/><path class="cls-4" d="M0,47.29,25.52,39.7c4.09,5.81,7.42,11.88,8.87,18.6L8.07,64.23a48.67,48.67,0,0,0,2.2-10.18A109.78,109.78,0,0,0,0,47.29Z"/><path class="cls-5" d="M21.26,10.33C9.81,54.18,67.89,75.68,56.44,119.53,80.8,106.31,106.25,94.3,130.6,81.08c2.25-8.6-.27-17.23-3.38-24.12-8.48-18.77-29.59-33.49-23.46-57Z"/><path class="cls-6" d="M30.41,25.56a47,47,0,0,0,.91,4.76L93.5,18.08a35.66,35.66,0,0,1-.72-3.76Z"/><path class="cls-6" d="M36.24,42.88,97.39,28c-.6-1.14-1.16-2.3-1.66-3.46L34.14,38.5Q35.1,40.72,36.24,42.88Z"/><path class="cls-6" d="M43.48,54.69,103,37.39c-.75-1.09-1.48-2.18-2.19-3.29L40.71,50.53C41.61,51.93,42.53,53.31,43.48,54.69Z"/><path class="cls-6" d="M65.79,93.81a47.33,47.33,0,0,1,.87,4.78L94,85.35a37.78,37.78,0,0,0-.78-4.27Z"/></g></g></svg>