<svg xmlns="http://www.w3.org/2000/svg" viewBox="0 0 131.46 106.81"><defs><style>.cls-1{fill:#87654b;}.cls-2{fill:#aebbc4;}.cls-3{fill:#e0e9ed;}.cls-4{fill:#93979a;}.cls-5{fill:#7c8a90;}.cls-6{fill:#d8e1e6;}</style></defs><g id="レイヤー_2" data-name="レイヤー 2"><g id="レイヤー_1-2" data-name="レイヤー 1"><polygon class="cls-1" points="131.46 106.81 0 106.81 11.62 12.35 119.84 12.35 131.46 106.81"/><path class="cls-2" d="M53.86,5C42,5,19.78,8.86,12.64,6.55c0,0,1.76,40.38-8.18,97.41,14.14-1,33-9,47.14-9s14.26,9,14.26,9l0-89S65.73,5,53.86,5Z"/><path class="cls-3" d="M54,3.46C42.09,3.46,23.82,7.18,18.31,0A400.2,400.2,0,0,1,7.82,97c4.47,6.28,28.84-2.18,43-2.18S65.86,104,65.86,104l0-90.47S65.88,3.46,54,3.46Z"/><path class="cls-4" d="M51.6,94.92c-14.13,0-39.13,9-47.14,9h61.4S65.73,94.92,51.6,94.92Z"/><path class="cls-5" d="M24.28,16.89l.16-1.73a62.52,62.52,0,0,0,9.27-1.44c5.38-1.06,11.45-2.26,16.36-2.26,6.53,0,8.73,1.48,9,1.64l-.56.68-.55.69s-2-1.3-7.91-1.3c-4.75,0-10.74,1.18-16,2.23A62.34,62.34,0,0,1,24.28,16.89Z"/><path class="cls-5" d="M23.45,25.76l.17-1.8a61.49,61.49,0,0,0,9.45-1.5c5.49-1.1,11.68-2.34,16.69-2.34,6.66,0,8.9,1.53,9.13,1.7l-.57.71-.56.72s-2-1.36-8.06-1.36c-4.84,0-11,1.23-16.37,2.32A62.62,62.62,0,0,1,23.45,25.76Z"/><path class="cls-5" d="M22.59,35l.18-1.88a61.9,61.9,0,0,0,9.64-1.56c5.61-1.14,11.92-2.44,17-2.44,6.8,0,9.08,1.59,9.32,1.78l-.59.73-.57.75S55.54,31,49.38,31c-4.94,0-11.18,1.28-16.71,2.42A63.27,63.27,0,0,1,22.59,35Z"/><path class="cls-5" d="M21.7,44.62l.18-2A62.85,62.85,0,0,0,31.73,41c5.71-1.2,12.16-2.55,17.38-2.55,6.93,0,9.26,1.66,9.5,1.85l-.59.77-.59.78s-2.1-1.48-8.39-1.48c-5,0-11.41,1.34-17,2.52C27.69,43.83,24,44.62,21.7,44.62Z"/><path class="cls-5" d="M20.76,54.64l.19-2c2.11,0,5.8-.79,10.06-1.69,5.84-1.25,12.43-2.65,17.75-2.65,7.08,0,9.45,1.73,9.71,1.93l-.62.8-.59.81s-2.14-1.54-8.57-1.54c-5.14,0-11.65,1.39-17.42,2.63C26.89,53.83,23.09,54.64,20.76,54.64Z"/><path class="cls-5" d="M19.78,65.1,20,63c2.16,0,5.93-.82,10.28-1.76,6-1.31,12.7-2.77,18.14-2.77,7.23,0,9.65,1.8,9.91,2l-.63.83-.61.85s-2.18-1.6-8.75-1.6c-5.25,0-11.9,1.45-17.79,2.74C26.05,64.25,22.16,65.1,19.78,65.1Z"/><path class="cls-5" d="M18.77,76,19,73.8c2.2,0,6.05-.85,10.5-1.84,6.11-1.36,13-2.89,18.54-2.89,7.39,0,9.86,1.88,10.13,2.1l-.64.87-.63.89s-2.23-1.68-8.94-1.68c-5.37,0-12.16,1.52-18.19,2.87C25.17,75.14,21.19,76,18.77,76Z"/><path class="cls-5" d="M17.7,87.44l.22-2.32c2.25,0,6.2-.9,10.75-1.93,6.24-1.42,13.27-3,18.95-3,7.55,0,10.09,2,10.35,2.19l-.65.91-.64.93s-2.28-1.75-9.14-1.75c-5.49,0-12.44,1.58-18.6,3C24.25,86.52,20.18,87.44,17.7,87.44Z"/><path class="cls-2" d="M77.65,5c11.86,0,34.08,3.85,41.22,1.54,0,0-1.77,40.38,8.17,97.41-14.14-1-33-9-47.13-9s-14.26,9-14.26,9l0-89S65.78,5,77.65,5Z"/><path class="cls-6" d="M77.53,3.45c11.89,0,30.16,3.72,35.68-3.45a399.88,399.88,0,0,0,10.48,96.94c-4.48,6.28-28.84-2.18-43-2.18S65.65,104,65.65,104l0-90.48S65.63,3.45,77.53,3.45Z"/><path class="cls-4" d="M79.91,94.92c14.13,0,39.12,9,47.13,9H65.64S65.77,94.92,79.91,94.92Z"/><path class="cls-5" d="M107.23,16.89l-.16-1.73a62.72,62.72,0,0,1-9.27-1.44c-5.38-1.06-11.45-2.26-16.36-2.26-6.53,0-8.73,1.48-9,1.64l.57.68.55.69s2-1.3,7.9-1.3c4.75,0,10.74,1.18,16,2.23A62.34,62.34,0,0,0,107.23,16.89Z"/><path class="cls-5" d="M108.06,25.76l-.17-1.8a61.49,61.49,0,0,1-9.45-1.5c-5.49-1.1-11.68-2.34-16.69-2.34-6.66,0-8.9,1.53-9.13,1.7l.57.71.56.72s2-1.36,8.06-1.36c4.83,0,11,1.23,16.37,2.32A62.62,62.62,0,0,0,108.06,25.76Z"/><path class="cls-5" d="M108.91,35l-.17-1.88a62.16,62.16,0,0,1-9.65-1.56c-5.6-1.14-11.91-2.44-17-2.44-6.79,0-9.08,1.59-9.32,1.78l.59.73.57.75S76,31,82.13,31c4.94,0,11.17,1.29,16.71,2.42A62.45,62.45,0,0,0,108.91,35Z"/><path class="cls-5" d="M109.81,44.62l-.18-2A62.49,62.49,0,0,1,99.78,41c-5.72-1.2-12.16-2.55-17.38-2.55-6.93,0-9.26,1.66-9.5,1.85l.59.77.59.78s2.09-1.48,8.39-1.48c5,0,11.41,1.34,17,2.52C103.82,43.83,107.54,44.62,109.81,44.62Z"/><path class="cls-5" d="M110.75,54.64l-.19-2c-2.11,0-5.8-.79-10.06-1.69-5.84-1.25-12.43-2.65-17.75-2.65-7.08,0-9.46,1.73-9.7,1.93l.61.8.59.81s2.14-1.54,8.57-1.54c5.14,0,11.65,1.39,17.41,2.63C104.62,53.83,108.42,54.64,110.75,54.64Z"/><path class="cls-5" d="M111.72,65.1l-.2-2.13c-2.15,0-5.92-.82-10.28-1.76-6-1.31-12.69-2.77-18.13-2.77-7.23,0-9.65,1.8-9.91,2l.63.83.61.85s2.18-1.6,8.75-1.6c5.25,0,11.89,1.45,17.79,2.74C105.46,64.25,109.34,65.1,111.72,65.1Z"/><path class="cls-5" d="M112.74,76l-.21-2.23c-2.2,0-6.06-.85-10.51-1.84-6.1-1.36-13-2.89-18.53-2.89-7.39,0-9.87,1.88-10.13,2.1L74,72l.62.89s2.24-1.68,8.95-1.68c5.37,0,12.16,1.52,18.19,2.87C106.34,75.14,110.31,76,112.74,76Z"/><path class="cls-5" d="M113.8,87.44l-.21-2.32c-2.26,0-6.2-.9-10.75-1.93-6.24-1.42-13.28-3-19-3-7.55,0-10.08,2-10.35,2.19l.65.91.64.93s2.29-1.75,9.14-1.75c5.49,0,12.44,1.58,18.61,3C107.26,86.52,111.32,87.44,113.8,87.44Z"/></g></g></svg>