<svg xmlns="http://www.w3.org/2000/svg" viewBox="0 0 131.46 131.46"><defs><style>.cls-1{fill:#cd946c;}.cls-2{fill:#fff;}.cls-3{fill:#93979a;}.cls-4{fill:#323333;}.cls-5{fill:#7eb74f;}.cls-6{fill:#aebbc4;}</style></defs><g id="レイヤー_2" data-name="レイヤー 2"><g id="レイヤー_1-2" data-name="レイヤー 1"><path class="cls-1" d="M73.32,127.79c-2.8,4.28-9.14,4.89-14,1.43L3.75,90.13A8.48,8.48,0,0,1,1.28,78.67L50.11,4.07C52.52.4,57.9-1.06,62.21.83l63,27.73c5.58,2.45,7.91,8,5.11,12.23Z"/><polygon class="cls-2" points="64.48 122.73 7.26 83.61 57.59 6.73 121.37 35.85 64.48 122.73"/><path class="cls-3" d="M100.71,30.38a3.4,3.4,0,0,1-4.22.92L72.42,20a2.22,2.22,0,0,1-1.12-3.27L75.07,11A3.21,3.21,0,0,1,79,10l24.39,10.82c1.54.69,2.15,2.24,1.35,3.47Z"/><path class="cls-4" d="M96.1,22.89l-15.5-7L84.43,10a3.3,3.3,0,0,1,4-1l10.32,4.48a2.3,2.3,0,0,1,1.31,3.38Z"/><polygon class="cls-5" points="97.24 54.59 65.04 38.08 66.73 35.49 99.04 51.84 97.24 54.59"/><path class="cls-5" d="M54.89,36.38a.57.57,0,0,1-.87-.3l-2-5.83a.64.64,0,0,1,.53-.81l.75-.15a.84.84,0,0,1,1,.49l1.05,3a.58.58,0,0,0,.87.3l6-3.36a.94.94,0,0,1,1.13.2l.48.58a.6.6,0,0,1-.18.94Z"/><polygon class="cls-6" points="86.71 70.67 55.15 53.18 56.84 50.6 88.51 67.93 86.71 70.67"/><polygon class="cls-6" points="49.1 53.8 39.79 48.56 45.16 40.34 54.59 45.42 49.1 53.8"/><polygon class="cls-6" points="76.18 86.76 45.26 68.29 46.95 65.71 77.98 84.01 76.18 86.76"/><polygon class="cls-6" points="39.3 68.78 30.17 63.25 35.55 55.03 44.78 60.4 39.3 68.78"/><polygon class="cls-6" points="65.65 102.84 35.37 83.4 37.06 80.82 67.45 100.1 65.65 102.84"/><polygon class="cls-6" points="29.49 83.76 20.55 77.94 25.93 69.72 34.98 75.38 29.49 83.76"/></g></g></svg>