<svg xmlns="http://www.w3.org/2000/svg" viewBox="0 0 30 30"><defs><style>.cls-1{fill:#89664c;}.cls-2{fill:#b77e58;}.cls-3{fill:#f2bc97;}.cls-4{fill:#d3976e;}.cls-5{fill:#5b7f38;}.cls-6{fill:#83bf4f;}</style></defs><g id="レイヤー_2" data-name="レイヤー 2"><g id="レイヤー_1-2" data-name="レイヤー 1"><polygon class="cls-1" points="11.67 18.29 11.67 24.07 0 30 0 22.25 11.67 18.29"/><rect class="cls-2" x="11.67" y="18.29" width="18.33" height="5.78"/><polygon class="cls-3" points="11.67 24.07 0 30 25.06 30 30 24.07 11.67 24.07"/><path class="cls-4" d="M16.6,22.25s-.16,3.26-.81,3.88c-1.29,1.19-5.23,1.19-6.51,0-.66-.62-.82-3.88-.82-3.88H0V30H25.06V22.25Z"/><polygon class="cls-1" points="30 24.07 25.06 30 25.06 22.25 30 18.29 30 24.07"/><path class="cls-5" d="M22.72,15.94l-2.63-1a11.79,11.79,0,0,0-2.17-9.43A15.23,15.23,0,0,0,10.76,0l-.67.16A12.6,12.6,0,0,1,14.5,6.91a14.09,14.09,0,0,1,.08,5.74l-2.25-.89h-1l2.73,10.15h1Z"/><path class="cls-6" d="M10.09.16a17.27,17.27,0,0,1,3.76,6.42,10.5,10.5,0,0,1,.21,6.22l-2.72-1,2.73,10.15,7.66-6-2.63-1a11.82,11.82,0,0,0-2.18-9.43A14.2,14.2,0,0,0,10.09.16Z"/></g></g></svg>