<svg xmlns="http://www.w3.org/2000/svg" viewBox="0 0 112.82 131.93"><defs><style>.cls-1{fill:#ff66b3;}.cls-2{fill:#f9c;}</style></defs><g id="レイヤー_2" data-name="レイヤー 2"><g id="レイヤー_1-2" data-name="レイヤー 1"><path class="cls-1" d="M106.91,26.3S100.35,7.66,87,16.48C80.65,20.7,72.74,31.16,63.25,52.9c23.67,1.53,36.59-.7,43.26-4.43C120.46,40.67,106.91,26.3,106.91,26.3Z"/><path class="cls-1" d="M49.22,2.27s-19.76.48-15.49,15.88C35.78,25.51,43.28,36.27,61,52,69.8,30,71.66,17,70.18,9.5,67.08-6.18,49.22,2.27,49.22,2.27Z"/><path class="cls-1" d="M8.54,49.72S2.89,68.65,18.85,69.35c7.64.33,20.19-3.48,40.64-15.49C41.25,38.71,29.47,32.92,21.89,32,6,30.12,8.54,49.72,8.54,49.72Z"/><path class="cls-1" d="M41.09,103.06S57.35,114.29,63,99.32c2.67-7.16,2.92-20.27-2.18-43.43-20,12.66-29.19,22.07-32.39,29C21.67,99.4,41.09,103.06,41.09,103.06Z"/><path class="cls-1" d="M101.88,88.59s15.7-12,3.2-21.94c-6-4.76-18.38-9.05-42-11.36,5.85,23,12,34.59,17.58,39.78C92.4,105.92,101.88,88.59,101.88,88.59Z"/><path class="cls-2" d="M34.08,76.56s-9.33-4.7-11.17,3.55c-.88,3.94-.07,10.83,4.29,22.59C36.78,94.61,40.88,89,42.06,85.16,44.52,77.07,34.08,76.56,34.08,76.56Z"/><path class="cls-2" d="M3.29,88.55S-4.06,96,3.21,100.28c3.48,2,10.28,3.4,22.81,2.9-4.73-11.61-8.78-17.25-12.09-19.56C7,78.78,3.29,88.55,3.29,88.55Z"/><path class="cls-2" d="M5.18,121.54s4.78,9.29,11.12,3.7c3-2.67,6.42-8.72,9.81-20.79-12.5.91-19.11,3-22.33,5.45C-3,115,5.18,121.54,5.18,121.54Z"/><path class="cls-2" d="M37.13,129.94s10.32-1.68,7-9.44c-1.6-3.7-6.31-8.8-16.74-15.75-3,12.17-3,19.11-1.72,22.93C28.39,135.66,37.13,129.94,37.13,129.94Z"/><path class="cls-2" d="M55,102.14s1.59-10.32-6.83-9.53C44.15,93,37.85,95.9,28,103.67c10.65,6.61,17.23,8.79,21.27,8.72C57.74,112.23,55,102.14,55,102.14Z"/></g></g></svg>