<svg xmlns="http://www.w3.org/2000/svg" viewBox="0 0 105.37 107.06"><defs><style>.cls-1{fill:#ff66b3;}.cls-2{fill:#f9c;}</style></defs><g id="レイヤー_2" data-name="レイヤー 2"><g id="レイヤー_1-2" data-name="レイヤー 1"><path class="cls-1" d="M104.36,49.4s2.42-19.61-13.44-17.63c-7.58.94-19.32,6.79-37.49,22,20.51,11.9,33.08,15.65,40.71,15.28C110.11,68.31,104.36,49.4,104.36,49.4Z"/><path class="cls-1" d="M63.38,2.22S45.47-6.13,42.45,9.56C41,17.06,42.94,30,51.83,52,69.49,36.19,76.94,25.39,78.94,18,83.13,2.6,63.38,2.22,63.38,2.22Z"/><path class="cls-1" d="M5.84,26.62s-13.48,14.44.51,22.17C13,52.48,26,54.65,49.63,53,40,31.31,32.07,20.88,25.68,16.7,12.31,8,5.84,26.62,5.84,26.62Z"/><path class="cls-1" d="M11.27,88.88s9.57,17.28,21.24,6.37C38.09,90,44.15,78.39,49.88,55.38,26.29,57.81,13.92,62.16,8,67-4.49,77,11.27,88.88,11.27,88.88Z"/><path class="cls-1" d="M72.15,103s19.4-3.76,12.62-18.24c-3.24-6.91-12.43-16.27-32.54-28.84-5,23.19-4.66,36.3-1.95,43.45C56,114.26,72.15,103,72.15,103Z"/><path class="cls-2" d="M80,51.35S81.28,41,72.9,42c-4,.5-10.22,3.59-19.82,11.66C63.92,60,70.57,62,74.61,61.75,83,61.34,80,51.35,80,51.35Z"/><path class="cls-2" d="M58.34,26.4S48.87,22,47.27,30.28c-.76,4,.26,10.83,5,22.45,9.34-8.37,13.28-14.08,14.34-18C68.78,26.6,58.34,26.4,58.34,26.4Z"/><path class="cls-2" d="M27.92,39.3s-7.13,7.64.27,11.72c3.53,2,10.37,3.1,22.88,2.23C46,41.78,41.78,36.27,38.4,34.06,31.34,29.43,27.92,39.3,27.92,39.3Z"/><path class="cls-2" d="M30.78,72.22S35.85,81.36,42,75.59c2.95-2.76,6.15-8.92,9.18-21.08-12.47,1.28-19,3.58-22.16,6.11C22.45,65.92,30.78,72.22,30.78,72.22Z"/><path class="cls-2" d="M63,79.66s10.25-2,6.67-9.64c-1.71-3.65-6.57-8.6-17.21-15.25C49.81,67,50,74,51.41,77.74,54.41,85.64,63,79.66,63,79.66Z"/></g></g></svg>