<svg xmlns="http://www.w3.org/2000/svg" viewBox="0 0 35.51 35.76"><defs><style>.cls-1{fill:#ff66b3;}</style></defs><g id="レイヤー_2" data-name="レイヤー 2"><g id="レイヤー_1-2" data-name="レイヤー 1"><path class="cls-1" d="M35.07,15.87s.55-6.6-4.73-5.73C27.81,10.56,24,12.67,18.08,18c7,3.71,11.29,4.8,13.84,4.57C37.25,22.12,35.07,15.87,35.07,15.87Z"/><path class="cls-1" d="M20.73.62s-6.11-2.56-6.91,2.73c-.39,2.53.43,6.85,3.7,14.09,5.7-5.53,8.05-9.25,8.63-11.74C27.35.48,20.73.62,20.73.62Z"/><path class="cls-1" d="M1.79,9.55s-4.32,5,.46,7.42c2.29,1.15,6.65,1.7,14.55.83C13.3,10.67,10.49,7.28,8.3,6,3.7,3.22,1.79,9.55,1.79,9.55Z"/><path class="cls-1" d="M4.44,30.32S7.87,36,11.63,32.17c1.8-1.82,3.67-5.8,5.29-13.57C9.05,19.72,5,21.35,3,23-1,26.54,4.44,30.32,4.44,30.32Z"/><path class="cls-1" d="M25,34.23s6.44-1.52,4-6.28c-1.18-2.27-4.38-5.28-11.28-9.22C16.35,26.56,16.63,31,17.63,33.3,19.73,38.23,25,34.23,25,34.23Z"/></g></g></svg>