<svg xmlns="http://www.w3.org/2000/svg" viewBox="0 0 75.72 55.73"><defs><style>.cls-1{fill:#f9c;}.cls-2{fill:#ff66b3;}</style></defs><g id="レイヤー_2" data-name="レイヤー 2"><g id="レイヤー_1-2" data-name="レイヤー 1"><path class="cls-1" d="M44.19,4.13S37-3.44,32.47,3.7c-2.16,3.41-3.71,10.17-3.58,22.71C40.63,22,46.39,18.15,48.8,14.91,53.84,8.13,44.19,4.13,44.19,4.13Z"/><path class="cls-1" d="M11.16,5s-9.43,4.5-4,11c2.57,3.11,8.52,6.67,20.49,10.42C27.08,13.94,25.17,7.27,22.84,4,17.94-2.91,11.16,5,11.16,5Z"/><path class="cls-1" d="M1.8,36.72S3.18,47.08,11,44c3.75-1.5,9-6.05,16.25-16.27-12.08-3.36-19-3.61-22.87-2.4C-3.65,27.81,1.8,36.72,1.8,36.72Z"/><path class="cls-1" d="M29.05,55.41s10.28,1.89,9.74-6.54c-.26-4-3-10.41-10.45-20.48-6.93,10.45-9.31,17-9.35,21C18.9,57.84,29.05,55.41,29.05,55.41Z"/><path class="cls-1" d="M55.25,35.27S60.23,26.08,52,24c-3.91-1-10.82-.39-22.71,3.61C37.13,37.42,42.59,41.69,46.42,43,54.43,45.68,55.25,35.27,55.25,35.27Z"/><path class="cls-2" d="M75.28,15.87s.55-6.6-4.73-5.73C68,10.56,64.17,12.67,58.29,18c7,3.71,11.28,4.8,13.83,4.57C77.46,22.12,75.28,15.87,75.28,15.87Z"/><path class="cls-2" d="M60.93.62S54.83-1.94,54,3.35c-.38,2.53.44,6.85,3.71,14.09,5.7-5.53,8.05-9.25,8.62-11.74C67.55.48,60.93.62,60.93.62Z"/><path class="cls-2" d="M42,9.55s-4.33,5,.46,7.42c2.29,1.15,6.65,1.7,14.55.83C53.5,10.67,50.7,7.28,48.5,6,43.91,3.22,42,9.55,42,9.55Z"/><path class="cls-2" d="M44.64,30.32s3.44,5.66,7.2,1.85c1.79-1.82,3.67-5.8,5.28-13.57C49.26,19.72,45.17,21.35,43.24,23,39.21,26.54,44.64,30.32,44.64,30.32Z"/><path class="cls-2" d="M65.21,34.23s6.45-1.52,4-6.28c-1.17-2.27-4.37-5.28-11.28-9.22C56.56,26.56,56.84,31,57.84,33.3,59.94,38.23,65.21,34.23,65.21,34.23Z"/></g></g></svg>