<svg xmlns="http://www.w3.org/2000/svg" viewBox="0 0 171.76 175.5"><defs><style>.cls-1{fill:#f9c;}.cls-2{fill:#ff66b3;}.cls-3{fill:none;stroke:#ff9;stroke-linecap:round;stroke-miterlimit:10;stroke-width:2px;}</style></defs><g id="レイヤー_2" data-name="レイヤー 2"><g id="レイヤー_1-2" data-name="レイヤー 1"><path class="cls-1" d="M155.31,143.77s25.35-20.1,4.59-36c-9.93-7.61-30.35-14.28-69-17.37,10.24,37.45,20.6,56.26,29.92,64.6C140.29,172.42,155.31,143.77,155.31,143.77Z"/><path class="cls-1" d="M161.72,41.66s-11.28-30.32-32.84-15.49C118.58,33.26,105.93,50.61,91,86.46c38.78,1.83,59.87-2.2,70.68-8.5C184.32,64.8,161.72,41.66,161.72,41.66Z"/><path class="cls-1" d="M66.59,4S34.27,5.37,41.71,30.45c3.56,12,16.15,29.38,45.65,54.63,13.72-36.32,16.4-57.63,13.76-69.85C95.58-10.34,66.59,4,66.59,4Z"/><path class="cls-1" d="M1.39,82.85S-7.31,114,18.84,114.68c12.5.32,32.94-6.28,66.06-26.53C54.6,63.88,35.17,54.74,22.72,53.48-3.3,50.85,1.39,82.85,1.39,82.85Z"/><path class="cls-1" d="M56.22,169.22s26.94,17.9,35.67-6.76c4.16-11.79,4.2-33.27-4.83-71-32.44,21.32-47.14,37-52.18,48.42C24.33,163.79,56.22,169.22,56.22,169.22Z"/><path class="cls-2" d="M123.54,117.33s13.39-10.61,2.42-19c-5.24-4-16-7.54-36.45-9.16,5.41,19.77,10.88,29.7,15.8,34.1C115.61,132.46,123.54,117.33,123.54,117.33Z"/><path class="cls-2" d="M126.93,63.41s-6-16-17.34-8.18c-5.44,3.75-12.12,12.91-20,31.84,20.48,1,31.62-1.16,37.33-4.49C138.86,75.63,126.93,63.41,126.93,63.41Z"/><path class="cls-2" d="M76.69,43.53s-17.06.72-13.13,14c1.88,6.33,8.53,15.52,24.1,28.85,7.25-19.18,8.66-30.43,7.27-36.88C92,36,76.69,43.53,76.69,43.53Z"/><path class="cls-2" d="M42.27,85.16s-4.6,16.46,9.21,16.81c6.6.17,17.39-3.32,34.88-14-16-12.82-26.26-17.64-32.83-18.31C39.79,68.26,42.27,85.16,42.27,85.16Z"/><path class="cls-2" d="M71.22,130.77s14.23,9.45,18.83-3.57c2.2-6.23,2.22-17.57-2.54-37.5C70.37,101,62.61,109.22,60,115.26,54.38,127.9,71.22,130.77,71.22,130.77Z"/><line class="cls-3" x1="76.13" y1="41.59" x2="79.82" y2="55.99"/><line class="cls-3" x1="39.56" y1="85.77" x2="56.76" y2="86.86"/><line class="cls-3" x1="130.22" y1="62.25" x2="116.69" y2="70.83"/><line class="cls-3" x1="69.99" y1="134.88" x2="75.84" y2="120.14"/><line class="cls-3" x1="125.97" y1="120.1" x2="113.34" y2="109.64"/></g></g></svg>