<svg xmlns="http://www.w3.org/2000/svg" viewBox="0 0 56.75 55.1"><defs><style>.cls-1{fill:#f9c;}</style></defs><g id="レイヤー_2" data-name="レイヤー 2"><g id="レイヤー_1-2" data-name="レイヤー 1"><path class="cls-1" d="M44.19,3.5S37-4.07,32.47,3.06c-2.16,3.42-3.71,10.18-3.58,22.72,11.74-4.38,17.5-8.26,19.91-11.5C53.84,7.5,44.19,3.5,44.19,3.5Z"/><path class="cls-1" d="M11.16,4.4s-9.43,4.5-4,11c2.57,3.1,8.52,6.67,20.49,10.42-.54-12.52-2.45-19.19-4.78-22.49C17.94-3.55,11.16,4.4,11.16,4.4Z"/><path class="cls-1" d="M1.8,36.09S3.18,46.44,11,43.32c3.75-1.49,9-6,16.25-16.26-12.08-3.37-19-3.61-22.87-2.41C-3.65,27.18,1.8,36.09,1.8,36.09Z"/><path class="cls-1" d="M29.05,54.77s10.28,1.9,9.74-6.53c-.26-4-3-10.42-10.45-20.48-6.93,10.45-9.31,17-9.35,21C18.9,57.21,29.05,54.77,29.05,54.77Z"/><path class="cls-1" d="M55.25,34.63s5-9.18-3.21-11.27c-3.91-1-10.82-.39-22.71,3.61,7.8,9.82,13.26,14.09,17.09,15.38C54.43,45.05,55.25,34.63,55.25,34.63Z"/></g></g></svg>